<svg width="31" height="32" viewBox="0 0 31 32" fill="none" xmlns="http://www.w3.org/2000/svg">
<path d="M15.4167 30C18.5207 30 21.5287 28.8769 23.9281 26.8221C26.3275 24.7674 27.97 21.908 28.5755 18.7313C29.1811 15.5545 28.7123 12.257 27.2491 9.40045C25.7859 6.54393 23.4187 4.30519 20.551 3.06569C17.6833 1.82619 14.4924 1.66261 11.522 2.60283C8.55166 3.54306 5.98562 5.52891 4.26112 8.22201C2.53662 10.9151 1.76036 14.1489 2.0646 17.3722C2.36885 20.5956 3.73478 23.6092 5.92965 25.8995" stroke="white" stroke-width="3" stroke-linecap="round"/>
<path d="M9.752 19.728V17.968L14.984 10.48H17.592V17.776H19V19.728H17.592V22H15.352V19.728H9.752ZM15.496 12.88L12.216 17.776H15.496V12.88Z" fill="white"/>
</svg>
