<svg width="31" height="32" viewBox="0 0 31 32" fill="none" xmlns="http://www.w3.org/2000/svg">
<path d="M15.4167 30C18.5207 30 21.5287 28.8769 23.9281 26.8221C26.3275 24.7674 27.97 21.908 28.5755 18.7313C29.1811 15.5545 28.7123 12.257 27.2491 9.40045C25.7859 6.54393 23.4187 4.30519 20.551 3.06569C17.6833 1.82619 14.4924 1.66261 11.522 2.60283C8.55166 3.54306 5.98562 5.52891 4.26112 8.22201C2.53662 10.9151 1.76036 14.1489 2.0646 17.3722C2.36885 20.5956 3.73478 23.6092 5.92965 25.8995" stroke="black" stroke-width="3" stroke-linecap="round"/>
<path d="M10.88 13.408C10.9333 12.3413 11.3067 11.52 12 10.944C12.704 10.3573 13.6267 10.064 14.768 10.064C15.5467 10.064 16.2133 10.2027 16.768 10.48C17.3227 10.7467 17.7387 11.1147 18.016 11.584C18.304 12.0427 18.448 12.5653 18.448 13.152C18.448 13.824 18.272 14.3947 17.92 14.864C17.5787 15.3227 17.168 15.632 16.688 15.792V15.856C17.3067 16.048 17.7867 16.3893 18.128 16.88C18.48 17.3707 18.656 18 18.656 18.768C18.656 19.408 18.5067 19.9787 18.208 20.48C17.92 20.9813 17.488 21.376 16.912 21.664C16.3467 21.9413 15.664 22.08 14.864 22.08C13.6587 22.08 12.6773 21.776 11.92 21.168C11.1627 20.56 10.7627 19.664 10.72 18.48H12.896C12.9173 19.0027 13.0933 19.424 13.424 19.744C13.7653 20.0533 14.2293 20.208 14.816 20.208C15.36 20.208 15.776 20.0587 16.064 19.76C16.3627 19.4507 16.512 19.056 16.512 18.576C16.512 17.936 16.3093 17.4773 15.904 17.2C15.4987 16.9227 14.8693 16.784 14.016 16.784H13.552V14.944H14.016C15.5307 14.944 16.288 14.4373 16.288 13.424C16.288 12.9653 16.1493 12.608 15.872 12.352C15.6053 12.096 15.216 11.968 14.704 11.968C14.2027 11.968 13.8133 12.1067 13.536 12.384C13.2693 12.6507 13.1147 12.992 13.072 13.408H10.88Z" fill="black"/>
</svg>
