<svg width="31" height="32" viewBox="0 0 31 32" fill="none" xmlns="http://www.w3.org/2000/svg">
<path d="M15.4167 30C18.5207 30 21.5287 28.8769 23.9281 26.8221C26.3275 24.7674 27.97 21.908 28.5755 18.7313C29.1811 15.5545 28.7123 12.257 27.2491 9.40045C25.7859 6.54393 23.4187 4.30519 20.551 3.06569C17.6833 1.82619 14.4924 1.66261 11.522 2.60283C8.55166 3.54306 5.98562 5.52891 4.26112 8.22201C2.53662 10.9151 1.76036 14.1489 2.0646 17.3722C2.36885 20.5956 3.73478 23.6092 5.92965 25.8995" stroke="white" stroke-width="3" stroke-linecap="round"/>
<path d="M12.552 19.472C13.576 18.6187 14.392 17.9093 15 17.344C15.608 16.768 16.1147 16.1707 16.52 15.552C16.9253 14.9333 17.128 14.3253 17.128 13.728C17.128 13.184 17 12.7573 16.744 12.448C16.488 12.1387 16.0933 11.984 15.56 11.984C15.0267 11.984 14.616 12.1653 14.328 12.528C14.04 12.88 13.8907 13.3653 13.88 13.984H11.704C11.7467 12.704 12.1253 11.7333 12.84 11.072C13.5653 10.4107 14.4827 10.08 15.592 10.08C16.808 10.08 17.7413 10.4053 18.392 11.056C19.0427 11.696 19.368 12.544 19.368 13.6C19.368 14.432 19.144 15.2267 18.696 15.984C18.248 16.7413 17.736 17.4027 17.16 17.968C16.584 18.5227 15.832 19.1947 14.904 19.984H19.624V21.84H11.72V20.176L12.552 19.472Z" fill="white"/>
</svg>
